<?xml version="1.0" encoding="UTF-8"?>
<!DOCTYPE svg PUBLIC "-//W3C//DTD SVG 1.1//EN" "http://www.w3.org/Graphics/SVG/1.1/DTD/svg11.dtd">
<svg xmlns="http://www.w3.org/2000/svg" style="background-color: rgb(255, 255, 255);" xmlns:xlink="http://www.w3.org/1999/xlink" version="1.1" width="351px" height="271px" viewBox="-0.5 -0.5 351 271"><defs/><g><path d="M 270 110 L 270 90 L 175 90 L 175 76.37" fill="none" stroke="#000000" stroke-miterlimit="10" pointer-events="none"/><path d="M 175 71.12 L 178.5 78.12 L 175 76.37 L 171.5 78.12 Z" fill="#000000" stroke="#000000" stroke-miterlimit="10" pointer-events="none"/><path d="M 190 136 L 190 110 L 350 110 L 350 136" fill="#ffffff" stroke="#000000" stroke-miterlimit="10" pointer-events="none"/><path d="M 190 136 L 190 170 L 350 170 L 350 136" fill="none" stroke="#000000" stroke-miterlimit="10" pointer-events="none"/><path d="M 190 136 L 350 136" fill="none" stroke="#000000" stroke-miterlimit="10" pointer-events="none"/><g fill="#000000" font-family="Helvetica" font-weight="bold" text-anchor="middle" font-size="12px"><text x="269.5" y="128.5">Employe</text></g><path d="M 80 110 L 80 90 L 175 90 L 175 76.37" fill="none" stroke="#000000" stroke-miterlimit="10" pointer-events="none"/><path d="M 175 71.12 L 178.5 78.12 L 175 76.37 L 171.5 78.12 Z" fill="#000000" stroke="#000000" stroke-miterlimit="10" pointer-events="none"/><path d="M 0 136 L 0 110 L 160 110 L 160 136" fill="#ffffff" stroke="#000000" stroke-miterlimit="10" pointer-events="none"/><path d="M 0 136 L 0 170 L 160 170 L 160 136" fill="none" stroke="#000000" stroke-miterlimit="10" pointer-events="none"/><path d="M 0 136 L 160 136" fill="none" stroke="#000000" stroke-miterlimit="10" pointer-events="none"/><g fill="#000000" font-family="Helvetica" font-weight="bold" text-anchor="middle" font-size="12px"><text x="79.5" y="128.5">Personne</text></g><path d="M 95 26 L 95 0 L 255 0 L 255 26" fill="#ffffff" stroke="#000000" stroke-miterlimit="10" pointer-events="none"/><path d="M 95 26 L 95 70 L 255 70 L 255 26" fill="none" stroke="#000000" stroke-miterlimit="10" pointer-events="none"/><path d="M 95 26 L 255 26" fill="none" stroke="#000000" stroke-miterlimit="10" pointer-events="none"/><g fill="#000000" font-family="Helvetica" font-weight="bold" text-anchor="middle" font-size="12px"><text x="174.5" y="18.5">object</text></g><path d="M 185 220 L 185 195 L 80 195 L 80 176.37" fill="none" stroke="#000000" stroke-miterlimit="10" pointer-events="none"/><path d="M 80 171.12 L 83.5 178.12 L 80 176.37 L 76.5 178.12 Z" fill="#000000" stroke="#000000" stroke-miterlimit="10" pointer-events="none"/><path d="M 185 220 L 185 195 L 270 195 L 270 176.37" fill="none" stroke="#000000" stroke-miterlimit="10" pointer-events="none"/><path d="M 270 171.12 L 273.5 178.12 L 270 176.37 L 266.5 178.12 Z" fill="#000000" stroke="#000000" stroke-miterlimit="10" pointer-events="none"/><path d="M 105 246 L 105 220 L 265 220 L 265 246" fill="#ffffff" stroke="#000000" stroke-miterlimit="10" pointer-events="none"/><path d="M 105 246 L 105 270 L 265 270 L 265 246" fill="none" stroke="#000000" stroke-miterlimit="10" pointer-events="none"/><path d="M 105 246 L 265 246" fill="none" stroke="#000000" stroke-miterlimit="10" pointer-events="none"/><g fill="#000000" font-family="Helvetica" font-weight="bold" text-anchor="middle" font-size="12px"><text x="184.5" y="238.5">ChargeDeCours</text></g></g></svg>