<?xml version="1.0" encoding="UTF-8"?>
<!DOCTYPE svg PUBLIC "-//W3C//DTD SVG 1.1//EN" "http://www.w3.org/Graphics/SVG/1.1/DTD/svg11.dtd">
<svg xmlns="http://www.w3.org/2000/svg" style="background-color: rgb(255, 255, 255);" xmlns:xlink="http://www.w3.org/1999/xlink" version="1.1" width="161px" height="461px" viewBox="-0.5 -0.5 161 461"><defs/><g><path d="M 80 360 L 80 286.37" fill="none" stroke="#000000" stroke-miterlimit="10" pointer-events="none"/><path d="M 80 281.12 L 83.5 288.12 L 80 286.37 L 76.5 288.12 Z" fill="#000000" stroke="#000000" stroke-miterlimit="10" pointer-events="none"/><path d="M 0 386 L 0 360 L 160 360 L 160 386" fill="#ffffff" stroke="#000000" stroke-miterlimit="10" pointer-events="none"/><path d="M 0 386 L 0 460 L 160 460 L 160 386" fill="none" stroke="#000000" stroke-miterlimit="10" pointer-events="none"/><path d="M 0 386 L 160 386" fill="none" stroke="#000000" stroke-miterlimit="10" pointer-events="none"/><g fill="#000000" font-family="Helvetica" font-weight="bold" text-anchor="middle" font-size="12px"><text x="79.5" y="378.5">Employe</text></g><path d="M 80 180 L 80 106.37" fill="none" stroke="#000000" stroke-miterlimit="10" pointer-events="none"/><path d="M 80 101.12 L 83.5 108.12 L 80 106.37 L 76.5 108.12 Z" fill="#000000" stroke="#000000" stroke-miterlimit="10" pointer-events="none"/><path d="M 0 206 L 0 180 L 160 180 L 160 206" fill="#ffffff" stroke="#000000" stroke-miterlimit="10" pointer-events="none"/><path d="M 0 206 L 0 280 L 160 280 L 160 206" fill="none" stroke="#000000" stroke-miterlimit="10" pointer-events="none"/><path d="M 0 206 L 160 206" fill="none" stroke="#000000" stroke-miterlimit="10" pointer-events="none"/><g fill="#000000" font-family="Helvetica" font-weight="bold" text-anchor="middle" font-size="12px"><text x="79.5" y="198.5">Personne</text></g><path d="M 0 26 L 0 0 L 160 0 L 160 26" fill="#ffffff" stroke="#000000" stroke-miterlimit="10" pointer-events="none"/><path d="M 0 26 L 0 100 L 160 100 L 160 26" fill="none" stroke="#000000" stroke-miterlimit="10" pointer-events="none"/><path d="M 0 26 L 160 26" fill="none" stroke="#000000" stroke-miterlimit="10" pointer-events="none"/><g fill="#000000" font-family="Helvetica" font-weight="bold" text-anchor="middle" font-size="12px"><text x="79.5" y="18.5">object</text></g></g></svg>